<?xml version="1.0" encoding="utf-8"?>
<svg version="1.1" xmlns:xlink="http://www.w3.org/1999/xlink" width="12px" height="12px" viewBox="300 584.5  12 12" xmlns="http://www.w3.org/2000/svg">
  <path d="M 306 584.5  C 309.36 584.5  312 587.14  312 590.5  C 312 593.86  309.36 596.5  306 596.5  C 302.64 596.5  300 593.86  300 590.5  C 300 587.14  302.64 584.5  306 584.5  Z " fill-rule="nonzero" fill="#ffffff" stroke="none" />
  <path d="M 306 585  C 309.08 585  311.5 587.42  311.5 590.5  C 311.5 593.58  309.08 596  306 596  C 302.92 596  300.5 593.58  300.5 590.5  C 300.5 587.42  302.92 585  306 585  Z " stroke-width="1" stroke="#797979" fill="none" />
  <path d="M 306 593.5  C 304.32 593.5  303 592.18  303 590.5  C 303 588.82  304.32 587.5  306 587.5  C 307.68 587.5  309 588.82  309 590.5  C 309 592.18  307.68 593.5  306 593.5  " fill-rule="nonzero" fill="#797979" stroke="none" />
</svg>